<?xml version="1.0" encoding="utf-8"?>
<!-- Generator: Adobe Illustrator 16.0.0, SVG Export Plug-In . SVG Version: 6.00 Build 0)  -->
<!DOCTYPE svg PUBLIC "-//W3C//DTD SVG 1.1//EN" "http://www.w3.org/Graphics/SVG/1.1/DTD/svg11.dtd">
<svg version="1.1" id="Calque_1" xmlns="http://www.w3.org/2000/svg" xmlns:xlink="http://www.w3.org/1999/xlink" x="0px" y="0px"
	 width="498.438px" height="245.313px" viewBox="0 0 498.438 245.313" enable-background="new 0 0 498.438 245.313"
	 xml:space="preserve">
<g>
	<path fill="#002D73" d="M141.306,152.786c-2.603,10.148-11.2,18.382-18.928,18.558c-7.727,0.21-16.333-8.002-18.937-18.634
		c-2.56-10.656,6.046-18.806,18.937-18.479C135.265,134.503,143.866,142.635,141.306,152.786z"/>
	<path fill="#002D73" d="M103.963,11.292l0.002,0.014C103.961,11.298,103.961,11.298,103.963,11.292
		c-0.195-0.132-0.302-0.216-0.302-0.216s10.619,10.098-7.79,56.798c-2.564,6.494-4.35,12.481-5.529,17.95
		c-0.755,3.507-0.952,6.955-0.684,10.281c1.052,13.073,6.228,24.167,17.891,29.314c2.228,0.985,7.822,1.853,10.257,2.36
		c7.343,1.045,10.728,0.05,11.121-0.003c12.628-1.972,20.536-12.162,20.536-12.162C180.754,68.935,109.089,15.061,103.963,11.292z"
		/>
	<path fill="#40B4E5" d="M95.975,29.089l0.008,0.009c-0.008-0.004-0.008-0.004-0.008-0.004c-0.182-0.102-0.283-0.159-0.283-0.159
		s10.396,7.465,0.05,50.063c-1.442,5.928-2.275,11.321-2.64,16.19c-0.237,3.123,0.006,6.132,0.631,8.972
		c2.475,11.186,8.058,21.094,18.982,23.226c30.391,5.934,35.091-13.49,35.091-13.49C169.294,69.77,100.865,31.733,95.975,29.089z"/>
	<path fill="#8F481F" d="M47.077,49.074h0.014c-0.003-0.003-0.003-0.003-0.003-0.003c-0.214-0.041-0.314-0.075-0.314-0.075
		s11.735,4.255,13.309,47.011c0.216,5.937,0.865,11.224,1.812,15.887c0.608,2.998,1.633,5.763,2.974,8.255
		c5.292,9.843,13.118,16.745,23.982,16.774c2.074,0.018,6.741-1.215,8.809-1.657c6.088-1.681,8.396-3.609,8.682-3.794
		c9.183-5.851,11.884-16.504,11.884-16.504C126.702,67.839,52.367,50.254,47.077,49.074z"/>
	<path fill="#EF7622" d="M47.209,65.23l0.007,0.003C47.209,65.23,47.209,65.23,47.209,65.23c-0.174-0.016-0.279-0.026-0.279-0.026
		s10.703,2.341,17.039,39.324c0.876,5.155,2.051,9.667,3.42,13.623c0.871,2.536,2.083,4.815,3.542,6.84
		c5.741,7.941,13.642,14.446,22.8,11.806c8.939-2.576,14.354-6.594,14.579-6.781c7.318-6.157,8.173-10.496,8.417-15.731
		C118.679,72.318,51.948,65.643,47.209,65.23z"/>
	<path fill="#802528" d="M11.896,133.508l0.009-0.004c-0.004,0.004-0.004,0.004-0.004,0.004c-0.136,0.113-0.219,0.168-0.219,0.168
		s9.103-5.444,38.095,16.455c4.032,3.047,7.863,5.457,11.442,7.337c2.299,1.21,4.663,2.013,7.034,2.472
		c9.324,1.805,18.066,0.354,23.911-6.777c1.123-1.364,2.815-5.101,3.641-6.692c2.151-4.919,2.12-7.478,2.151-7.762
		c1.083-9.186-4.49-16.679-4.49-16.679C66.991,91.151,15.519,130.663,11.896,133.508z"/>
	<path fill="#E2231A" d="M22.662,143.392l0.001-0.009C22.664,143.388,22.664,143.388,22.662,143.392
		c-0.102,0.104-0.159,0.163-0.159,0.163s7.209-5.822,34.972,9.586c3.857,2.144,7.463,3.758,10.796,4.951
		c2.135,0.764,4.282,1.169,6.389,1.282c8.285,0.416,16.131-1.648,19.864-8.794c3.573-6.833,3.25-12.968,3.247-13.215
		c-0.188-8.083-5.934-13.88-5.934-13.88C65.156,99.993,25.45,140.481,22.662,143.392z"/>
	<path fill="#026937" d="M42.507,190.238l0.007-0.011c-0.004,0.009-0.005,0.008-0.005,0.008c-0.044,0.126-0.074,0.192-0.074,0.192
		s3.74-7.187,31.364-4.563c3.842,0.371,7.291,0.396,10.382,0.185c1.981-0.137,3.837-0.561,5.562-1.208
		c6.783-2.563,11.887-7.012,12.83-13.997c0.187-1.33-0.213-4.436-0.313-5.804c-0.572-4.063-1.615-5.716-1.711-5.908
		c-2.975-6.409-9.604-9.046-9.604-9.046C61.359,140.612,43.724,186.934,42.507,190.238z"/>
	<path fill="#77BC1F" d="M52.308,191.617l0.003-0.002C52.309,191.617,52.308,191.617,52.308,191.617
		c-0.021,0.117-0.04,0.179-0.04,0.179s2.362-6.801,27.012-8.036c3.421-0.172,6.467-0.588,9.155-1.168
		c1.723-0.374,3.305-0.981,4.742-1.785c5.637-3.12,9.489-7.686,9.491-13.951c0.001-3.911-2.882-9.446-2.951-9.553
		c-0.113-0.167-0.228-0.338-0.332-0.498c-3.444-5.259-9.61-6.726-9.61-6.726C62.526,145.543,52.951,188.559,52.308,191.617z"/>
	<path fill="#683277" d="M204.891,101.262h-0.006c0.006,0.002,0.006,0.002,0.006,0.002c0.144,0.044,0.218,0.06,0.218,0.06
		s-8.846-1.459-24.87,24.751c-2.226,3.647-4.493,6.729-6.729,9.321c-1.435,1.662-3.05,3.028-4.768,4.127
		c-6.777,4.305-14.107,5.872-20.923,2.067c-1.299-0.721-3.789-3.135-4.935-4.138c-3.212-3.206-3.982-5.226-4.098-5.435
		c-3.697-6.896-1.633-14.516-1.633-14.516C148.42,85.006,201.163,100.148,204.891,101.262z"/>
	<path fill="#A25CBF" d="M198.892,111.616h-0.004c0.002,0.006,0.002,0.006,0.007,0.006c0.113,0.049,0.175,0.078,0.175,0.078
		s-7.489-2.306-24.43,18.526c-2.35,2.899-4.67,5.299-6.915,7.288c-1.433,1.275-2.991,2.268-4.607,3.015
		c-6.37,2.936-13.161,3.76-18.358-0.65c-5.193-4.409-6.43-8.608-6.478-8.733c-0.078-0.209-0.15-0.417-0.226-0.611
		c-2.396-6.402,0.28-12.766,0.28-12.766C151.887,90.95,195.792,110.218,198.892,111.616z"/>
	<path fill="#B88C1D" d="M99.399,227.691l-0.001-0.01C99.403,227.688,99.4,227.691,99.399,227.691
		c0.066,0.092,0.099,0.143,0.099,0.143s-3.153-6.035,11.945-23.788c2.102-2.477,3.786-4.836,5.126-7.065
		c0.86-1.424,1.461-2.903,1.847-4.409c1.492-5.906,0.887-11.557-3.466-15.563c-0.826-0.771-3.154-1.999-4.152-2.581
		c-3.069-1.56-4.702-1.636-4.893-1.666c-5.836-1.031-10.84,2.259-10.84,2.259C74.309,190.835,97.717,225.264,99.399,227.691z"/>
	<path fill="#FFCE00" d="M105.448,220.433l-0.001-0.004C105.448,220.431,105.448,220.433,105.448,220.433
		c0.067,0.072,0.102,0.108,0.102,0.108s-3.462-4.768,7.245-21.895c1.492-2.38,2.636-4.619,3.501-6.696
		c0.553-1.33,0.885-2.683,1.026-4.012c0.535-5.251-0.709-10.002-4.933-12.909c-2.652-1.826-5.954-2.194-7.792-2.49
		c-0.164-0.026-0.329-0.003-0.49-0.007c-5.139-0.154-9.012,3.306-9.012,3.306C79.295,192.009,103.692,218.564,105.448,220.433z"/>
	<path fill="#AB004F" d="M148.366,218.305h-0.006l0,0c0.099,0.022,0.148,0.039,0.148,0.039s-5.465-2.155-5.639-22.284
		c-0.026-2.795-0.262-5.29-0.645-7.5c-0.245-1.417-0.691-2.728-1.292-3.919c-2.353-4.7-5.942-8.051-11.054-8.204
		c-0.973-0.041-3.18,0.482-4.167,0.657c-2.886,0.716-3.994,1.593-4.133,1.672c-4.397,2.627-5.805,7.607-5.805,7.607
		C111.162,208.425,145.887,217.684,148.366,218.305z"/>
	<path fill="#FB7FB5" d="M148.263,210.362h-0.006C148.263,210.362,148.263,210.362,148.263,210.362c0.083,0.009,0.13,0.02,0.13,0.02
		s-4.941-1.271-7.251-18.581c-0.319-2.409-0.788-4.532-1.358-6.393c-0.362-1.192-0.887-2.271-1.529-3.238
		c-2.536-3.793-5.984-6.291-10.401-5.881c-0.844,0.077-2.694,0.764-3.52,1.017c-1.963,0.986-2.755,1.46-3.376,1.888
		c-3.666,2.511-4.183,7.174-4.183,7.174C115.169,205.849,146.068,210.088,148.263,210.362z"/>
	<path fill="#0075C9" d="M139.144,153.91c-2.436,9.505-10.491,17.216-17.729,17.38c-7.239,0.196-15.3-7.496-17.737-17.455
		c-2.398-9.979,5.662-17.61,17.737-17.311C133.488,136.782,141.543,144.399,139.144,153.91z"/>
	<path fill="#40B4E5" d="M133.67,148.273c0,3.497-2.832,6.327-6.33,6.327c-3.493,0-6.33-2.83-6.33-6.327
		c0-3.496,2.837-6.33,6.33-6.33C130.838,141.943,133.67,144.777,133.67,148.273z"/>
	<path fill="#555759" d="M214.176,209.986c-2.624,2.275-5.559,4.021-8.817,5.245c-3.254,1.206-6.625,1.822-10.119,1.822
		c-2.67,0-5.245-0.351-7.728-1.054c-2.478-0.7-4.803-1.696-6.961-2.979c-2.167-1.285-4.146-2.82-5.929-4.618
		c-1.779-1.805-3.314-3.794-4.579-5.977c-1.282-2.185-2.261-4.525-2.957-7.024c-0.696-2.505-1.04-5.102-1.04-7.804
		c0-2.694,0.344-5.304,1.04-7.816c0.695-2.518,1.674-4.866,2.957-7.049c1.265-2.175,2.8-4.172,4.579-5.971
		c1.783-1.799,3.762-3.341,5.929-4.621c2.158-1.288,4.483-2.276,6.961-2.981c2.483-0.7,5.058-1.051,7.728-1.051
		c3.494,0,6.865,0.603,10.119,1.807c3.258,1.203,6.193,2.96,8.817,5.255l-5.985,9.922c-1.651-1.796-3.603-3.178-5.862-4.144
		c-2.256-0.963-4.619-1.447-7.088-1.447c-2.485,0-4.82,0.477-7,1.431c-2.177,0.95-4.079,2.238-5.708,3.865
		c-1.621,1.626-2.909,3.544-3.858,5.756c-0.942,2.211-1.416,4.561-1.416,7.045c0,2.485,0.473,4.827,1.416,7.008
		c0.949,2.18,2.237,4.096,3.858,5.735c1.629,1.641,3.531,2.938,5.708,3.889c2.18,0.952,4.515,1.437,7,1.437
		c2.47,0,4.833-0.494,7.088-1.457c2.26-0.966,4.211-2.343,5.862-4.148L214.176,209.986z"/>
	<path fill="#555759" d="M260.221,215.825h-39.51v-56.923h11.292v45.528h28.218V215.825z"/>
	<path fill="#555759" d="M313.98,215.825h-11.294v-11.395H280.1v11.395h-11.256v-34.139c0-3.149,0.588-6.106,1.77-8.871
		c1.179-2.767,2.791-5.186,4.824-7.247c2.036-2.061,4.419-3.688,7.162-4.879c2.739-1.19,5.671-1.787,8.791-1.787
		c3.129,0,6.057,0.597,8.798,1.787c2.74,1.191,5.137,2.818,7.186,4.879c2.043,2.062,3.658,4.48,4.842,7.247
		c1.178,2.765,1.765,5.722,1.765,8.871V215.825z M302.687,193.075v-11.389c0-1.564-0.291-3.034-0.884-4.425
		c-0.589-1.392-1.39-2.602-2.423-3.632c-1.019-1.033-2.216-1.849-3.6-2.442c-1.376-0.602-2.839-0.893-4.39-0.893
		c-1.545,0-3.003,0.291-4.387,0.893c-1.377,0.594-2.575,1.409-3.596,2.442c-1.022,1.03-1.834,2.24-2.43,3.632
		c-0.583,1.391-0.879,2.86-0.879,4.425v11.389H302.687z"/>
	<path fill="#555759" d="M363.522,158.902l-18.542,56.923h-11.288l-18.457-56.923h12.828l11.251,37.985l11.295-37.985H363.522z"/>
	<path fill="#555759" d="M381.907,215.825h-11.299v-56.923h11.299V215.825z"/>
	<path fill="#A0A1A2" d="M277.854,149.357h-11.125v-30.166c0-3.26,0.144-6.858,0.419-10.793h-0.275
		c-0.582,3.088-1.104,5.319-1.567,6.683l-11.717,34.276h-9.201l-11.925-33.928c-0.321-0.915-0.848-3.259-1.568-7.031h-0.315
		c0.305,4.968,0.456,9.328,0.456,13.078v27.881h-10.144V98.938h16.485l10.215,29.887c0.813,2.393,1.408,4.796,1.781,7.207h0.208
		c0.627-2.789,1.288-5.218,1.985-7.277l10.214-29.816h16.074V149.357z"/>
	<path fill="#555759" d="M435.183,193.075c0,3.154-0.592,6.109-1.765,8.876c-1.184,2.765-2.799,5.17-4.84,7.222
		c-2.048,2.05-4.445,3.673-7.183,4.864c-2.744,1.194-5.678,1.788-8.796,1.788c-3.124,0-6.056-0.594-8.795-1.788
		c-2.748-1.191-5.133-2.814-7.165-4.864c-2.033-2.052-3.647-4.457-4.826-7.222c-1.175-2.767-1.769-5.722-1.769-8.876v-34.173h11.26
		v34.173c0,1.564,0.287,3.028,0.886,4.407c0.589,1.378,1.396,2.578,2.417,3.61c1.025,1.032,2.225,1.847,3.608,2.446
		c1.367,0.591,2.831,0.892,4.384,0.892c1.551,0,3.009-0.301,4.383-0.892c1.379-0.6,2.581-1.414,3.601-2.446
		c1.025-1.032,1.833-2.232,2.423-3.61c0.59-1.379,0.889-2.843,0.889-4.407v-34.173h11.288V193.075z"/>
	<path fill="#555759" d="M441.686,175.972c0-2.355,0.438-4.567,1.324-6.629c0.898-2.063,2.11-3.873,3.646-5.419
		c1.53-1.551,3.328-2.775,5.369-3.669c2.054-0.902,4.237-1.353,6.569-1.353h25.898v11.393h-25.898c-0.784,0-1.513,0.142-2.204,0.439
		c-0.672,0.288-1.277,0.693-1.784,1.205c-0.515,0.512-0.914,1.119-1.201,1.809c-0.285,0.684-0.429,1.431-0.429,2.224
		c0,0.796,0.144,1.534,0.429,2.241c0.287,0.701,0.687,1.31,1.201,1.825c0.507,0.515,1.112,0.924,1.784,1.21
		c0.691,0.291,1.42,0.438,2.204,0.438h11.3c2.341,0,4.532,0.446,6.592,1.328c2.063,0.886,3.854,2.103,5.393,3.649
		c1.532,1.55,2.741,3.365,3.622,5.443c0.873,2.074,1.316,4.289,1.316,6.646c0,2.353-0.443,4.559-1.316,6.627
		c-0.881,2.065-2.09,3.872-3.622,5.421c-1.538,1.549-3.33,2.769-5.393,3.667c-2.06,0.904-4.251,1.357-6.592,1.357h-25.065v-11.395
		h25.065c0.784,0,1.519-0.146,2.202-0.439c0.679-0.288,1.283-0.696,1.794-1.211c0.507-0.514,0.908-1.115,1.198-1.807
		c0.297-0.686,0.432-1.432,0.432-2.221c0-0.795-0.135-1.533-0.432-2.22c-0.29-0.688-0.691-1.292-1.198-1.809
		c-0.511-0.516-1.115-0.917-1.794-1.213c-0.684-0.29-1.418-0.437-2.202-0.437h-11.3c-2.332,0-4.516-0.448-6.569-1.349
		c-2.041-0.897-3.839-2.122-5.369-3.672c-1.535-1.546-2.747-3.361-3.646-5.438C442.124,180.541,441.686,178.325,441.686,175.972z"/>
	<path fill="#A0A1A2" d="M335.425,124.67c0,2.359-0.308,4.63-0.913,6.822c-0.607,2.188-1.463,4.236-2.568,6.146
		c-1.1,1.911-2.434,3.65-3.99,5.232c-1.563,1.568-3.285,2.919-5.167,4.043c-1.88,1.122-3.915,1.989-6.093,2.604
		c-2.181,0.61-4.443,0.92-6.786,0.92c-2.34,0-4.591-0.31-6.767-0.92c-2.163-0.614-4.195-1.481-6.09-2.604
		c-1.893-1.124-3.621-2.475-5.183-4.043c-1.561-1.582-2.897-3.321-4.012-5.232c-1.114-1.909-1.975-3.958-2.58-6.146
		c-0.608-2.192-0.915-4.463-0.915-6.822c0-2.36,0.307-4.644,0.915-6.841c0.605-2.2,1.466-4.251,2.58-6.147s2.451-3.631,4.012-5.21
		c1.562-1.571,3.29-2.916,5.183-4.025c1.895-1.111,3.927-1.975,6.09-2.586c2.176-0.617,4.427-0.921,6.767-0.921
		c2.343,0,4.605,0.305,6.786,0.921c2.178,0.611,4.213,1.475,6.093,2.586c1.882,1.109,3.604,2.454,5.167,4.025
		c1.557,1.579,2.891,3.314,3.99,5.21c1.105,1.896,1.961,3.947,2.568,6.147C335.117,120.026,335.425,122.31,335.425,124.67z
		 M325.61,124.67c0-2.177-0.414-4.23-1.241-6.161c-0.826-1.938-1.942-3.615-3.356-5.038c-1.415-1.423-3.076-2.554-4.994-3.384
		c-1.913-0.833-3.95-1.25-6.111-1.25c-2.176,0-4.224,0.417-6.127,1.25c-1.905,0.831-3.568,1.961-4.993,3.384
		c-1.422,1.423-2.549,3.101-3.372,5.038c-0.827,1.931-1.242,3.984-1.242,6.161c0,2.176,0.415,4.215,1.242,6.127
		c0.823,1.91,1.95,3.58,3.372,5.021c1.425,1.433,3.088,2.568,4.993,3.4c1.903,0.83,3.951,1.251,6.127,1.251
		c2.161,0,4.198-0.421,6.111-1.251c1.918-0.832,3.579-1.968,4.994-3.4c1.414-1.441,2.53-3.111,3.356-5.021
		C325.196,128.885,325.61,126.846,325.61,124.67z"/>
	<path fill="#A0A1A2" d="M381.386,149.357h-10.569l-19.037-32.777v32.777h-9.883V99.566h10.568l19.04,32.811V99.566h9.881V149.357z"
		/>
</g>
</svg>
